<?xml version="1.0" encoding="utf-8"?>
<!-- Generator: Adobe Illustrator 21.1.0, SVG Export Plug-In . SVG Version: 6.00 Build 0)  -->
<svg version="1.1" id="Layer_1" xmlns="http://www.w3.org/2000/svg" xmlns:xlink="http://www.w3.org/1999/xlink" x="0px" y="0px"
	 viewBox="0 0 217.9 232.5" enable-background="new 0 0 217.9 232.5" xml:space="preserve">
<g id="v_x5F_2">
	<polyline fill="none" stroke="#000000" stroke-width="4" stroke-miterlimit="10" points="108.4,21.4 87.4,99.8 97.1,176.7 
		108.5,187.5 120.1,176.6 	"/>
	<polyline fill="none" stroke="#000000" stroke-width="4" stroke-miterlimit="10" points="140.1,89.1 183.6,89.1 190.1,33.6 
		129.7,99.8 	"/>
	<polyline fill="none" stroke="#000000" stroke-width="4" stroke-miterlimit="10" points="77.5,89.8 33,89.4 26.8,33.6 87.4,99.8 	
		"/>
	<polyline fill="none" stroke="#000000" stroke-width="4" stroke-miterlimit="10" points="23.1,3.3 67.7,51.1 108.6,68.1 
		149.3,51.6 192.4,4.1 	"/>
	<path fill="none" stroke="#000000" stroke-width="4" stroke-miterlimit="10" d="M19.7,104.2L2,123.7v34.5c0,0,41.5-5,58,40.5
		c3.3,9.1,5.8,31.5,24.5,31.8c17.5,0.3,17.2-12.7,24.3-12.5c6.3,0.2,4.7,12.5,23.7,12.5c17.3,0,20.5-21.9,24.2-31.3
		c17.4-44.3,59.2-41.8,59.2-41.8v-33.8L197.7,104"/>
	<polyline fill="none" stroke="#000000" stroke-width="4" stroke-miterlimit="10" points="107.8,150.9 145.9,111.2 184,116.8 
		215.9,123.7 	"/>
	<polyline fill="none" stroke="#000000" stroke-width="4" stroke-miterlimit="10" points="129.1,127.9 148.1,127.7 164.4,113.7 	"/>
	<polyline fill="none" stroke="#000000" stroke-width="4" stroke-miterlimit="10" points="109.3,150.9 71.5,110.9 33.9,116.8 
		2,123.7 	"/>
	<polyline fill="none" stroke="#000000" stroke-width="4" stroke-miterlimit="10" points="53.3,113.9 69.5,128.2 87.6,128.2 	"/>
	<line fill="none" stroke="#000000" stroke-width="4" stroke-miterlimit="10" x1="33.9" y1="116.8" x2="59.1" y2="197"/>
	<line fill="none" stroke="#000000" stroke-width="4" stroke-miterlimit="10" x1="184" y1="116.8" x2="156.8" y2="198.4"/>
	<path fill="none" stroke="#000000" stroke-width="4" stroke-miterlimit="10" d="M108.6,217.2c8.8,0,17.5-5.7,17.5-14.5
		c0-8.8-8.7-14.5-17.5-14.5s-18.3,5.7-18.3,14.5C90.3,211.6,99.7,217.2,108.6,217.2z"/>
	<polyline fill="none" stroke="#000000" stroke-width="4" stroke-miterlimit="10" points="120.1,176.6 129.7,99.8 108.4,21.4 	"/>
	<line fill="none" stroke="#000000" stroke-width="4" stroke-miterlimit="10" x1="84.5" y1="165" x2="64.2" y2="212.4"/>
	<line fill="none" stroke="#000000" stroke-width="4" stroke-miterlimit="10" x1="132.6" y1="165" x2="152.7" y2="212.4"/>
	<line fill="none" stroke="#000000" stroke-width="4" stroke-miterlimit="10" x1="33.3" y1="117" x2="2" y2="158.2"/>
	<line fill="none" stroke="#000000" stroke-width="4" stroke-miterlimit="10" x1="184.2" y1="116.8" x2="215.9" y2="157.4"/>
	<path fill="none" stroke="#000000" stroke-width="4" stroke-miterlimit="10" d="M23,3.3C16.6-0.8,8.2,5.1,8,14.1
		c-0.4,21,0,79.5,0,79.5l11.5,10.6l89,83.3l89.2-83.5l10.2-9.5c0,0,0.5-60.3,0.5-81.8c0-8.5-10-13-16.3-8.4
		c-11.3,8.3-46.5,31.7-46.5,31.7l-37.1-14.5l-37.8,14C70.6,35.4,39.4,14,23,3.3z"/>
</g>
<g>
</g>
<g>
</g>
<g>
</g>
<g>
</g>
<g>
</g>
<g>
</g>
</svg>
